<?xml version="1.0" encoding="utf-8"?>
<!-- Generator: Adobe Illustrator 27.0.1, SVG Export Plug-In . SVG Version: 6.00 Build 0)  -->
<svg version="1.1" id="Layer_1" xmlns="http://www.w3.org/2000/svg" xmlns:xlink="http://www.w3.org/1999/xlink" x="0px" y="0px"
	 viewBox="0 0 1366 768" style="enable-background:new 0 0 1366 768;" xml:space="preserve">
<style type="text/css">
	.st0{fill-rule:evenodd;clip-rule:evenodd;fill:#2E3C44;}
	.st1{fill:#2E3C44;}
</style>
<g>
	<path class="st0" d="M171.82,365.41h203.46c14.42,0,26.1-11.66,26.1-26.03s-11.69-26.03-26.1-26.03H171.82
		c-2.87,0-5.22,2.34-5.22,5.2v41.67c0,2.86,2.35,5.21,5.22,5.21V365.41z"/>
	<path class="st0" d="M171.81,458.15h203.07c14.39,0,26.05-11.71,26.05-26.14s-11.67-26.14-26.05-26.14H171.81
		c-2.86,0-5.21,2.35-5.21,5.22v41.85c0,2.87,2.34,5.23,5.21,5.23V458.15z"/>
	<path class="st1" d="M834.66,338.85l-25.38,0.03c-1.43,0-2.66,1.03-2.91,2.45L804,355.05c-4.26-4.73-9.37-8.63-15.25-11.64
		c-7.95-4.06-17.42-6.1-28.09-6.1c-12.9,0-24.68,3.12-34.97,9.23c-10.33,6.12-18.54,14.88-24.44,26.03
		c-5.85,11.1-8.82,24.06-8.81,38.54c0.02,14.82,2.97,27.95,8.75,39.04c5.84,11.17,14.05,19.83,24.41,25.75
		c10.28,5.88,22.1,8.85,35.14,8.85h0.1c10.53,0,19.92-2.23,27.88-6.6c5.85-3.21,10.96-7.24,15.29-12.01l2.25,14.44
		c0.22,1.43,1.46,2.5,2.93,2.5l25.66-0.03c0.78,0,1.54-0.31,2.08-0.87c0.56-0.56,0.86-1.3,0.86-2.08l-0.16-138.28
		c0-1.63-1.33-2.96-2.96-2.96h-0.01V338.85z M802.89,411.51c0,12.71-3.46,23.14-10.31,31.01c-6.84,7.88-15.65,11.7-26.92,11.72
		h-0.06c-11.24,0-20.04-3.86-26.89-11.78c-6.89-7.95-10.37-18.51-10.39-31.41c0-12.71,3.46-23.2,10.31-31.16
		c6.84-7.95,15.65-11.82,26.92-11.84h0.06c11.23,0,20.02,3.89,26.88,11.89C799.38,387.99,802.88,398.61,802.89,411.51z"/>
	<path class="st1" d="M960.28,400.02c-8.26-2.65-18.54-4.64-30.54-5.9c-8.7-1.05-15.07-1.98-18.94-2.78
		c-3.49-0.71-6.38-1.96-8.61-3.74c-1.89-1.49-2.81-3.78-2.81-7c0-4.52,2.1-8.04,6.43-10.73c4.71-2.94,11.1-4.43,18.96-4.43h0.06
		c7.76,0,14.24,1.85,19.28,5.5c4.93,3.58,7.64,7.98,8.27,13.46c0.18,1.49,1.43,2.62,2.94,2.62l28.35-0.03c0.81,0,1.6-0.34,2.16-0.93
		s0.84-1.4,0.8-2.22c-0.98-14.91-7.36-26.64-18.97-34.87c-11.33-8.04-26.18-12.1-44.12-12.1h-0.15c-10.98,0-20.95,1.92-29.65,5.67
		c-8.82,3.81-15.85,9.28-20.92,16.27c-5.11,7.06-7.7,15.23-7.7,24.29c0,9.71,2.69,17.6,7.95,23.43c5.11,5.69,11.92,9.87,20.24,12.44
		c7.96,2.47,18.19,4.45,30.36,5.88c8.69,1.05,15.16,2.07,19.27,3.03c3.71,0.86,6.66,2.3,8.79,4.27c1.91,1.77,2.84,4.51,2.85,8.36
		c0,4.51-2.22,8.07-6.8,10.85c-4.99,3.04-11.7,4.58-19.93,4.6h-0.07c-9.18,0-16.7-2.11-22.36-6.28c-5.54-4.08-8.47-9.16-8.95-15.53
		c-0.12-1.54-1.4-2.73-2.94-2.73l-28.09,0.03c-0.8,0-1.55,0.33-2.11,0.89c-0.56,0.58-0.86,1.34-0.84,2.14
		c0.4,15.66,6.77,28.1,18.94,37c11.88,8.67,27.54,13.08,46.59,13.08h0.15c11.3,0,21.67-1.86,30.79-5.51
		c9.28-3.71,16.7-9.12,22.03-16.09c5.42-7.08,8.16-15.37,8.14-24.63c0-10.4-2.72-18.82-8.04-25c-5.2-6.06-12.2-10.53-20.8-13.28
		v-0.03H960.28z"/>
	<path class="st1" d="M1031.22,283.25h-0.03c-5.81,0-10.77,1.98-14.74,5.85c-3.99,3.9-6.01,8.84-6.01,14.69s2.04,10.79,6.04,14.67
		c3.97,3.86,8.92,5.82,14.73,5.82h0.03c5.81,0,10.77-1.98,14.74-5.85c3.99-3.9,6.01-8.84,6.01-14.69s-2.04-10.77-6.05-14.67
		C1041.97,285.21,1037.02,283.25,1031.22,283.25z"/>
	<path class="st1" d="M1045.85,338.59l-29.17,0.03c-0.78,0-1.54,0.31-2.08,0.87c-0.55,0.56-0.86,1.3-0.86,2.08l0.16,138.28
		c0,1.63,1.33,2.95,2.95,2.95l29.16-0.03c0.79,0,1.54-0.31,2.08-0.87c0.55-0.56,0.86-1.3,0.86-2.08l-0.16-138.28
		C1048.8,339.92,1047.47,338.59,1045.85,338.59z"/>
	<path class="st1" d="M1191.35,413.05c-5.2-6.06-12.2-10.52-20.8-13.28c-8.26-2.65-18.54-4.64-30.54-5.9
		c-8.69-1.05-15.06-1.98-18.95-2.78c-3.48-0.71-6.38-1.96-8.61-3.74c-1.9-1.49-2.8-3.78-2.8-7c0-4.52,2.09-8.04,6.42-10.73
		c4.71-2.94,11.1-4.43,18.95-4.43h0.06c7.76,0,14.25,1.85,19.28,5.5c4.94,3.58,7.64,7.98,8.28,13.46c0.18,1.49,1.43,2.62,2.94,2.62
		l28.35-0.03c0.81,0,1.6-0.34,2.15-0.93c0.57-0.59,0.85-1.4,0.8-2.22c-0.97-14.91-7.36-26.64-18.97-34.87
		c-11.33-8.04-26.18-12.1-44.12-12.1h-0.13c-10.98,0-20.95,1.92-29.66,5.67c-8.82,3.81-15.85,9.28-20.92,16.27
		c-5.11,7.06-7.7,15.23-7.7,24.29c0,9.71,2.69,17.6,7.95,23.43c5.11,5.69,11.92,9.87,20.24,12.44c7.98,2.47,18.19,4.45,30.36,5.88
		c8.68,1.05,15.16,2.07,19.27,3.03c3.71,0.86,6.66,2.3,8.79,4.27c1.9,1.77,2.84,4.51,2.85,8.36c0,4.51-2.21,8.07-6.79,10.85
		c-4.99,3.04-11.7,4.58-19.93,4.6h-0.08c-9.17,0-16.69-2.11-22.35-6.28c-5.54-4.09-8.47-9.16-8.95-15.53
		c-0.12-1.54-1.41-2.73-2.94-2.73l-28.09,0.03c-0.8,0-1.55,0.33-2.11,0.89c-0.57,0.58-0.86,1.34-0.84,2.14
		c0.39,15.66,6.77,28.1,18.94,37c11.88,8.67,27.54,13.08,46.57,13.08h0.15c11.3,0,21.68-1.86,30.8-5.51
		c9.28-3.71,16.69-9.12,22.02-16.09c5.43-7.08,8.16-15.37,8.15-24.63c0-10.4-2.72-18.82-8.04-25L1191.35,413.05L1191.35,413.05z"/>
	<path class="st1" d="M636.09,382.67h0.03c7-2.96,12.75-7.11,17.14-12.44c6.44-7.82,9.71-17.85,9.69-29.85
		c-0.02-16.39-6.21-29.36-18.37-38.52c-11.88-8.95-28.65-13.5-49.84-13.5h-0.18l-69.42,0.09c-0.78,0-1.54,0.31-2.08,0.87
		c-0.56,0.56-0.86,1.3-0.86,2.08l0.22,189.05c0,1.63,1.33,2.95,2.96,2.95l71.84-0.09c23.07-0.03,41.16-4.98,53.77-14.72
		c12.85-9.93,19.36-23.71,19.33-40.99C670.3,404.6,658.8,389.53,636.09,382.67z M559.24,320.24h43.01
		c13.29,0,24.07,10.82,24.07,24.15s-10.77,24.15-24.07,24.15h-43.01V320.24z M607.32,451.35h-48.07v-51.07h48.07
		c14.05,0,25.45,11.44,25.45,25.53C632.76,439.91,621.38,451.35,607.32,451.35z"/>
</g>
</svg>
